# xmcd
# 
# Track frame offsets:
#     150
#     13183
#     24905
#     37186
#     53236
#     70276
#     82437
#     93960
#     109632
#     126803
#     211963
#     236234
#     248754
#     262867
#     274879
#     291129
#     305800
# 
# Disc length: 4240
# 
# Revision: 0
# Processed by: cddbd v1.5.2PL0 Copyright (c) Steve Scherf et al.
# Submitted via: fre:ac v1.0.31
# 
DISCID=fb108e11
DTITLE=Various Artist - lo mejor de country
DYEAR=0
DGENRE=Country
TTITLE0=Kenny Rogers - ruby don´t take your
TTITLE1=Fredy Fender - before the next teardrop falls
TTITLE2=Crystal Gayle - don´t it make my browun eyes blue
TTITLE3=Willie Nelson - alwaus on my mind
TTITLE4=Wynonna - tell me why
TTITLE5=Tammy Wynette - stand by your man
TTITLE6=Patsy Cline - walkin´after midnight
TTITLE7=The Judds - why not me
TTITLE8=Dr. Hook and The Medicine Show - sylvia´s mother
TTITLE9=Johnny Cash - a thing called love
TTITLE10=Lynn Anderson - rose garden
TTITLE11=Anne Murray - i just fall in love again
TTITLE12=Elvis Costello and The attractions - good year for the roses
TTITLE13=Ray Charles - together again
TTITLE14=The Charley Daniels Band - the devil went down to giorgia
TTITLE15=The Bellamy Brothers - let your love flow
TTITLE16=Nancy Sinatra - these boots are made for walkin´
EXTD=
EXTT0=
EXTT1=
EXTT2=
EXTT3=
EXTT4=
EXTT5=
EXTT6=
EXTT7=
EXTT8=
EXTT9=
EXTT10=
EXTT11=
EXTT12=
EXTT13=
EXTT14=
EXTT15=
EXTT16=
PLAYORDER=
